<svg width="635" height="143" viewBox="0 0 635 143" fill="none" xmlns="http://www.w3.org/2000/svg">
  <path fill-rule="evenodd" clip-rule="evenodd"
    d="M-131.135 -8.1071L-76.2466 18.4963L30.0112 18.4963L-8.77417 -7.8642L-8.54614 -8.1071L-131.135 -8.1071ZM-37.0537 41.091L-76.9255 21.7659L-176.69 21.7659L-126.112 41.091H-37.0537ZM-30.3079 44.3606L7.05591 62.4701L-70.1584 62.4701L-117.555 44.3606L-30.3079 44.3606ZM44.1372 80.4427L13.8018 65.7397L-61.6013 65.7397L-23.1204 80.4427L44.1372 80.4427ZM50.8831 83.7124L74.2048 95.016L15.021 95.016L-14.563 83.7124L50.8831 83.7124ZM104.269 109.587L80.9507 98.2856L23.5784 98.2856L53.1572 109.587L104.269 109.587ZM111.014 112.857L134.334 124.159L91.2959 124.159L61.7144 112.857L111.014 112.857ZM164.4 138.732L141.08 127.429L99.853 127.429L129.435 138.732L164.4 138.732ZM171.146 142.001L172.611 142.712L173.086 142.001L827.366 142.001L827.408 142.263L829.049 142.001L1205.44 142.001V141.23L1353.18 127.429L1360.59 127.429V126.737L1509.17 112.857H1515.39V112.275L1665.15 98.2854H1672.55V97.5938L1821.15 83.7122H1827.7V83.0997L2013.54 65.7395H2021.01V65.0415L2242.39 44.3606H2247.42V43.8906L2484.25 21.7659H2498.11V20.4716L2804.03 -8.1071H2812.57V-8.90521L2812.63 -8.91045L2812.57 -9.51085V-11.3767H2812.4L2812.33 -12.1659L2803.88 -11.3767L2684.17 -11.3767L2684.07 -12.3248L2674.45 -11.3767H2555.94L2555.83 -12.456L2545.47 -11.3767L2427.61 -11.3767L2427.55 -11.9253L2422.56 -11.3767H2299.93L2299.82 -12.3481L2291.53 -11.3767L2171.69 -11.3767L2171.55 -12.4829L2162.72 -11.3767H2043.38L2043.29 -12.089L2037.97 -11.3767L1915.11 -11.3767L1914.99 -12.1403L1909.71 -11.3767H1773.51L1773.43 -11.9332L1769.94 -11.3767L1661.86 -11.3767L1661.63 -12.7088L1653.85 -11.3767L1532.14 -11.3767L1531.9 -12.6822L1524.98 -11.3767H1402.49L1402.33 -12.141L1398.72 -11.3767L1274.47 -11.3767L1274.43 -11.5234L1273.82 -11.3767H1146.53L1146.42 -11.7778L1144.95 -11.3767L1018.41 -11.3767L1017.94 -12.4442L1014.56 -11.3767H888.614L887.941 -12.6495L884.616 -11.3767L760.387 -11.3767L759.617 -12.508L757.322 -11.3767H631.8L631.078 -12.132L629.986 -11.3767L502.71 -11.3767L502.498 -11.5089L502.384 -11.3767L-388.961 -11.3767L-391.07 -12.0468L-391.283 -11.3767H-517.188L-519.081 -11.8904L-519.22 -11.3767L-644.27 -11.3767L-646.946 -12.0112L-647.096 -11.3767H-771.998L-775.051 -12.0184L-775.186 -11.3767L-900.618 -11.3767L-903.143 -11.853L-903.233 -11.3767L-1027.4 -11.3767L-1031.59 -12.0956L-1031.71 -11.3767H-1157.21L-1159.96 -11.8065L-1160.02 -11.3767L-1284.5 -11.3767L-1288.21 -11.9124L-1288.29 -11.3767H-1413.7L-1416.63 -11.7687L-1416.68 -11.3767L-1543.9 -11.3767L-1545.01 -11.5155L-1545.03 -11.3767H-1673.47L-1673.62 -11.3939L-1673.62 -11.3767L-1799.01 -11.3767L-1801.91 -11.6955L-1801.94 -11.3767L-2054.49 -11.3767L-2058.74 -11.8072L-2058.78 -11.3767L-2182.71 -11.3767L-2187.08 -11.7971L-2187.12 -11.3767H-2187.36V-8.93344L-2187.4 -8.54248L-2187.36 -8.53886V-8.1071H-2182.87L-1881.6 20.8534V21.7659H-1872.11L-1638.16 44.2557V44.3606H-1637.07L-1227.76 83.7125H-1227.71L-621.453 141.992V142.001H-621.356L-620.318 142.101L-620.309 142.001L-574.309 142.001L-573.429 142.091L-573.42 142.001L-480.564 142.001L-479.668 142.094L-479.658 142.001L-433.402 142.001L-432.791 142.069L-432.783 142.001L-386.988 142.001L-385.937 142.124L-385.922 142.001L-340.162 142.001L-339.058 142.139L-339.041 142.001L-292.798 142.001L-292.178 142.084L-292.167 142.001L-245.801 142.001L-245.316 142.071L-245.306 142.001L-198.679 142.001L-198.444 142.038L-198.438 142.001L-152.078 142.001L-151.595 142.084L-151.581 142.001L-105.233 142.001L-104.737 142.095L-104.719 142.001L-58.3047 142.001L-57.8909 142.088L-57.8726 142.001L-11.3738 142.001L-11.0327 142.082L-11.0137 142.001L35.5513 142.001L35.7905 142.066L35.8081 142.001L128.897 142.001L130.191 142.496L130.452 142.001L171.146 142.001ZM23.5022 138.732L-18.1499 127.429L-58.6753 127.429L-10.9917 138.732L23.5022 138.732ZM-25.1675 138.732L-72.8511 127.429L-111.729 127.429L-57.9646 138.732L-25.1675 138.732ZM-73.8574 138.732L-127.622 127.429L-164.84 127.429L-104.927 138.732L-73.8574 138.732ZM-122.564 138.732L-182.477 127.429L-217.729 127.429L-151.8 138.732L-122.564 138.732ZM-171.15 138.732L-237.079 127.429L-270.618 127.429L-198.425 138.732L-171.15 138.732ZM-219.563 138.732L-291.756 127.429L-323.794 127.429L-245.566 138.732L-219.563 138.732ZM-268.43 138.732L-346.659 127.429L-376.996 127.429L-292.58 138.732L-268.43 138.732ZM-317.218 138.732L-401.634 127.429L-430.612 127.429L-339.959 138.732L-317.218 138.732ZM-366.386 138.732L-457.039 127.429L-483.68 127.429L-386.798 138.732L-366.386 138.732ZM-415.014 138.732L-511.896 127.429L-536.062 127.429L-433.223 138.732L-415.014 138.732ZM-463.151 138.732L-565.99 127.429L-589.606 127.429L-480.395 138.732L-463.151 138.732ZM-512.156 138.732L-621.367 127.429L-685.608 127.429L-574.143 138.732L-512.156 138.732ZM-606.553 138.732L-718.018 127.429L-738.775 127.429L-621.199 138.732L-606.553 138.732ZM35.9873 138.732L-5.66504 127.429L37.2617 127.429L72.8477 138.732L35.9873 138.732ZM83.6487 138.732L120.34 138.732L90.7588 127.429L48.0627 127.429L83.6487 138.732ZM1203.57 138.732L1203.51 138.127L1318.03 127.429L1299.34 127.429L1184.65 138.732L1203.57 138.732ZM1155.21 138.732L1155.17 138.352L1266 127.429L1244.67 127.429L1136.18 138.732L1155.21 138.732ZM1108.3 138.732L1108.26 138.354L1213.12 127.429L1190.6 127.429L1087.85 138.732L1108.3 138.732ZM1061.41 138.732L1061.37 138.356L1160.7 127.429L1135.74 127.429L1039.34 138.732L1061.41 138.732ZM1014.5 138.732L1014.45 138.358L1107.67 127.429L1081.11 127.429L990.892 138.732L1014.5 138.732ZM967.592 138.732L967.545 138.361L1054.81 127.429L1026.85 127.429L942.513 138.732L967.592 138.732ZM920.683 138.732L920.633 138.365L1002.24 127.429L972.266 127.429L894.071 138.732L920.683 138.732ZM873.772 138.732L873.72 138.37L949.411 127.429L920.414 127.429L849.549 138.732L873.772 138.732ZM828.79 138.732L899.656 127.429L862.167 127.429L796.123 138.732L828.79 138.732ZM779.954 138.732L779.863 138.197L842.784 127.429L807.233 127.429L747.353 138.732L779.954 138.732ZM733.036 138.732L732.922 138.128L789.605 127.429L759.845 127.429L706.54 138.732L733.036 138.732ZM690.776 138.732L744.082 127.429L704.979 127.429L657.51 138.732L690.776 138.732ZM643.395 138.732L690.863 127.429L649.68 127.429L608.342 138.732L643.395 138.732ZM596.358 138.732L596.33 138.626L637.283 127.429L585.861 127.429L550.073 138.732L596.358 138.732ZM541.3 138.732L541.055 138.17L575.064 127.429L531.064 127.429L501.536 138.732L541.3 138.732ZM494.855 138.732L494.451 137.968L521.985 127.429L483.032 127.429L460.101 138.732L494.855 138.732ZM454.338 138.732L453.946 138.156L475.708 127.429L434.942 127.429L418.598 138.732L454.338 138.732ZM413.608 138.732L413.334 138.445L429.264 127.429L386.935 127.429L377.187 138.732L413.608 138.732ZM372.919 138.732L382.668 127.429L338.941 127.429L335.789 138.732L372.919 138.732ZM332.403 138.732L335.556 127.429L290.922 127.429L294.366 138.732L332.403 138.732ZM290.958 138.732L287.514 127.429L243.906 127.429L253.949 138.732L290.958 138.732ZM249.627 138.732L239.584 127.429L196.034 127.429L212.664 138.732L249.627 138.732ZM206.919 138.732L171.825 138.732L148.505 127.429L190.289 127.429L206.919 138.732ZM52.6201 112.857L82.2017 124.159L37.7686 124.16L2.18262 112.857L52.6201 112.857ZM26.9675 124.16L-17.7141 124.16L-59.3662 112.857L-8.61841 112.857L26.9675 124.16ZM-71.8511 112.857L-30.199 124.16L-72.469 124.16L-120.153 112.857L-71.8511 112.857ZM-134.328 112.857L-86.6448 124.16L-127.281 124.16L-181.046 112.857L-134.328 112.857ZM-196.939 112.857L-143.175 124.16L-182.172 124.16L-242.084 112.857L-196.939 112.857ZM-259.721 112.857L-199.809 124.16L-236.802 124.16L-302.731 112.857L-259.721 112.857ZM-322.081 112.857L-256.151 124.16L-291.502 124.16L-363.695 112.857L-322.081 112.857ZM-384.833 112.857L-312.64 124.16L-346.423 124.16L-424.652 112.857L-384.833 112.857ZM-447.517 112.857L-369.288 124.16L-401.416 124.16L-485.833 112.857L-447.517 112.857ZM-510.47 112.857L-426.054 124.16L-456.836 124.16L-547.488 112.857L-510.47 112.857ZM-573.915 112.857L-483.262 124.16L-511.706 124.16L-608.587 112.857L-573.915 112.857ZM-636.803 112.857L-539.921 124.16L-565.811 124.16L-668.649 112.857L-636.803 112.857ZM-698.577 112.857L-595.739 124.16L-621.198 124.16L-730.409 112.857L-698.577 112.857ZM-762.17 112.857L-652.959 124.16L-717.852 124.16L-829.317 112.857L-762.17 112.857ZM-861.727 112.857L-750.262 124.16L-772.743 124.16V124.164L-890.364 112.857L-861.727 112.857ZM1474.02 112.857L1353.03 124.159L1332.52 124.159L1447.2 112.857L1474.02 112.857ZM1413.87 112.857L1299.18 124.159L1276.06 124.159L1384.55 112.857L1413.87 112.857ZM1352.99 112.857L1244.5 124.159L1220.33 124.159L1323.08 112.857L1352.99 112.857ZM1293.18 112.857L1190.43 124.159L1163.63 124.159L1260.03 112.857L1293.18 112.857ZM1231.95 112.857L1135.55 124.159L1107.2 124.159L1197.42 112.857L1231.95 112.857ZM1171.12 112.857L1080.9 124.159L1051.25 124.159L1135.59 112.857L1171.12 112.857ZM1110.97 112.857L1026.63 124.159L994.886 124.159L1073.08 112.857L1110.97 112.857ZM1050.23 112.857L972.031 124.159L940.914 124.159L1011.78 112.857L1050.23 112.857ZM991.02 112.857L920.155 124.159L881.271 124.159L947.314 112.857L991.02 112.857ZM927.932 112.857L861.889 124.159L824.555 124.159L884.435 112.857L927.932 112.857ZM866.807 112.857L806.927 124.159L775.266 124.159L828.572 112.857L866.807 112.857ZM812.808 112.857L759.503 124.159L718.71 124.159L766.179 112.857L812.808 112.857ZM752.063 112.857L704.595 124.159L661.638 124.159L702.976 112.857L752.063 112.857ZM690.579 112.857L649.241 124.159L596.213 124.159L632 112.857L690.579 112.857ZM621.204 112.857L585.417 124.159L539.606 124.159L569.134 112.857L621.204 112.857ZM560.055 112.857L530.526 124.159L489.666 124.159L512.597 112.857L560.055 112.857ZM505.273 112.857L482.342 124.159L439.67 124.159L456.014 112.857L505.273 112.857ZM450.337 112.857L433.993 124.159L389.754 124.159L399.503 112.857L450.337 112.857ZM395.236 112.857L385.488 124.159L339.854 124.159L343.007 112.857L395.236 112.857ZM339.621 112.857L336.468 124.159L289.926 124.159L286.482 112.857L339.621 112.857ZM283.074 112.857L286.518 124.159L241.001 124.159L230.958 112.857L283.074 112.857ZM226.636 112.857L236.679 124.159L191.224 124.159L174.594 112.857L226.636 112.857ZM168.848 112.857L185.479 124.159L141.759 124.159L118.439 112.857L168.848 112.857ZM44.063 109.587L-8.11157 109.587L-43.6943 98.2856L14.4841 98.2856L44.063 109.587ZM-18.9126 109.587L-54.4954 98.2856L-113.064 98.2856L-71.4153 109.587L-18.9126 109.587ZM-83.9001 109.587L-125.549 98.2856L-181.626 98.2856L-133.947 109.587L-83.9001 109.587ZM-148.122 109.587L-195.802 98.2856L-250.358 98.2856L-196.599 109.587L-148.122 109.587ZM-212.491 109.587L-266.251 98.2856L-319.323 98.2856L-259.416 109.587L-212.491 109.587ZM-277.053 109.587L-336.96 98.2856L-387.726 98.2856L-321.802 109.587L-277.053 109.587ZM-341.152 109.587L-407.076 98.2856L-456.766 98.2856L-384.579 109.587L-341.152 109.587ZM-405.717 109.587L-477.904 98.2856L-525.503 98.2856L-447.281 109.587L-405.717 109.587ZM-470.146 109.587L-548.368 98.2856L-594.661 98.2856L-510.252 109.587H-470.146ZM-534.89 109.587L-619.299 98.2856L-664.357 98.2856L-573.712 109.587L-534.89 109.587ZM-600.139 109.587L-690.783 98.2856L-733.487 98.2856L-636.613 109.587H-600.139ZM-664.829 109.587L-761.702 98.2857L-801.228 98.2857L-698.398 109.587L-664.829 109.587ZM-728.326 109.587L-831.156 98.2857L-871.203 98.2857L-762.002 109.587L-728.326 109.587ZM-793.762 109.587L-902.964 98.2857L-973.017 98.2857L-861.562 109.587L-793.762 109.587ZM-893.972 109.587L-1005.43 98.2857L-1041.94 98.2857L-924.348 109.587L-893.972 109.587ZM1509.02 109.587L1629.99 98.2854L1595.06 98.2854L1480.38 109.587L1509.02 109.587ZM1447.04 109.587L1561.72 98.2854H1524.41L1415.93 109.587H1447.04ZM1384.38 109.587L1492.86 98.2855L1455.54 98.2855L1352.8 109.587L1384.38 109.587ZM1322.9 109.587L1425.64 98.2855L1384.31 98.2855L1287.92 109.587L1322.9 109.587ZM1259.84 109.587L1356.23 98.2855L1313.72 98.2855L1223.52 109.587L1259.84 109.587ZM1197.22 109.587L1287.42 98.2855L1244.31 98.2855L1159.98 109.587L1197.22 109.587ZM1135.37 109.587L1219.7 98.2855L1173.89 98.2855L1095.7 109.587L1135.37 109.587ZM1072.85 109.587L1151.03 98.2855L1103.14 98.2855L1032.28 109.587L1072.85 109.587ZM1011.52 109.587L1082.38 98.2855L1032.46 98.2855L966.419 109.587L1011.52 109.587ZM947.037 109.587L1013.07 98.2855L961.632 98.2855L901.757 109.587L947.037 109.587ZM884.129 109.587L944.004 98.2855L897.293 98.2855L843.992 109.587L884.129 109.587ZM828.229 109.587L881.53 98.2855L827.375 98.2855L779.91 109.587L828.229 109.587ZM765.795 109.587L813.259 98.2855L756.269 98.2855L714.935 109.587L765.795 109.587ZM702.538 109.587L743.872 98.2855L678.137 98.2855L642.353 109.587L702.538 109.587ZM631.557 109.587L667.341 98.2855L607.202 98.2855L577.676 109.587L631.557 109.587ZM568.597 109.587L598.122 98.2855L542.159 98.2855L519.23 109.587L568.597 109.587ZM511.907 109.587L534.836 98.2855L477.085 98.2855L460.742 109.587L511.907 109.587ZM455.065 109.587L471.408 98.2855L412.07 98.2855L402.323 109.587L455.065 109.587ZM398.056 109.587L407.803 98.2855L347.071 98.2856L343.919 109.587L398.056 109.587ZM340.533 109.587L343.686 98.2856L282.042 98.2856L285.486 109.587L340.533 109.587ZM282.078 109.587L278.635 98.2856L218.011 98.2856L228.053 109.587L282.078 109.587ZM223.731 109.587L213.689 98.2856L153.154 98.2856L169.783 109.587L223.731 109.587ZM164.038 109.587L147.409 98.2856L88.3757 98.2856L111.693 109.587L164.038 109.587ZM-23.6572 83.7124L5.92676 95.016L-53.9885 95.016L-89.5774 83.7124L-23.6572 83.7124ZM-100.378 83.7124L-64.7896 95.016L-125.113 95.016L-166.769 83.7124L-100.378 83.7124ZM-179.253 83.7124L-137.598 95.016L-195.42 95.016L-243.107 83.7124L-179.253 83.7124ZM-257.283 83.7124L-209.595 95.016L-265.911 95.016L-319.68 83.7124L-257.283 83.7124ZM-335.573 83.7124L-281.804 95.016L-336.655 95.016L-396.573 83.7124L-335.573 83.7124ZM-414.21 83.7124L-354.292 95.016L-406.798 95.016L-472.733 83.7124L-414.21 83.7124ZM-492.083 83.7124L-426.148 95.016L-477.65 95.016L-549.849 83.7124L-492.083 83.7124ZM-626.367 83.7124L-570.988 83.7124L-498.788 95.016L-548.133 95.016L-626.367 83.7124ZM-649.232 83.7124L-570.998 95.016L-619.081 95.016L-703.505 83.7124L-649.232 83.7124ZM-728.143 83.7124L-643.719 95.016L-690.581 95.016L-781.241 83.7124L-728.143 83.7124ZM-807.668 83.7124L-717.007 95.016L-761.512 95.016L-858.403 83.7124L-807.668 83.7124ZM-886.618 83.7124L-789.728 95.016L-830.977 95.016L-933.825 83.7124L-886.618 83.7124ZM-963.753 83.7124L-860.905 95.0161L-902.795 95.0161L-1012.02 83.7124L-963.753 83.7124ZM-1043.78 83.7124L-934.556 95.0161L-1005.26 95.0161L-1116.74 83.7125L-1043.78 83.7124ZM-1149.15 83.7125L-1037.67 95.0161L-1075.89 95.0161V95.0218L-1193.54 83.7125L-1149.15 83.7125ZM1785.99 83.7122L1664.99 95.0158L1628.23 95.0158L1742.93 83.7122L1785.99 83.7122ZM1709.59 83.7122L1594.9 95.0158L1555.8 95.0158L1664.3 83.7122L1709.59 83.7122ZM1632.74 83.7122L1524.24 95.0158L1485.27 95.0158L1588.03 83.7122L1632.74 83.7122ZM1558.12 83.7122L1455.36 95.0159L1412.19 95.0159L1508.6 83.7122L1558.12 83.7122ZM1480.52 83.7122L1384.12 95.0159L1339.82 95.0159L1430.04 83.7122L1480.52 83.7122ZM1403.74 83.7122L1313.52 95.0159L1268.71 95.0159L1353.05 83.7122L1403.74 83.7122ZM1328.44 83.7122L1244.09 95.0159L1196.51 95.0159L1274.71 83.7122L1328.44 83.7122ZM1251.86 83.7122L1173.66 95.0159L1123.64 95.0159L1194.51 83.7123L1251.86 83.7122ZM1173.75 83.7123L1102.88 95.0159L1051.56 95.0159L1117.61 83.7123L1173.75 83.7123ZM1098.23 83.7123L1032.18 95.0159L978.954 95.0159L1038.84 83.7123L1098.23 83.7123ZM1021.21 83.7123L961.326 95.0159L912.713 95.0159L966.024 83.7123L1021.21 83.7123ZM950.261 83.7123L896.95 95.0159L841.106 95.0159L888.579 83.7123L950.261 83.7123ZM874.464 83.7123L826.991 95.0159L768.228 95.0159L809.569 83.7123L874.464 83.7123ZM797.172 83.7123L755.831 95.0159L688.49 95.0159L724.28 83.7123L797.172 83.7123ZM713.484 83.7123L677.693 95.0159L615.744 95.0159L645.275 83.7123L713.484 83.7123ZM636.195 83.7123L606.664 95.0159L548.793 95.0159L571.726 83.7123L636.195 83.7123ZM564.403 83.7123L541.469 95.0159L481.813 95.0159L498.159 83.7123L564.403 83.7123ZM492.482 83.7123L476.136 95.0159L414.89 95.0159L424.639 83.7123L492.482 83.7123ZM420.372 83.7123L410.623 95.0159L347.983 95.0159L351.137 83.7123L420.372 83.7123ZM347.751 83.7123L344.598 95.0159L281.046 95.016L277.602 83.7123L347.751 83.7123ZM274.194 83.7123L277.638 95.016L215.106 95.016L205.062 83.7123L274.194 83.7123ZM200.74 83.7123L210.784 95.016L148.344 95.016L131.712 83.7123L200.74 83.7123ZM125.967 83.7123L142.598 95.016L81.6299 95.016L58.3081 83.7124L125.967 83.7123ZM-32.2144 80.4428L-70.6953 65.7397L-146.163 65.7397L-99.8716 80.4428L-32.2144 80.4428ZM-178.818 80.4428L-110.673 80.4428L-156.964 65.7397L-233.001 65.7397L-178.818 80.4428ZM-191.302 80.4428L-245.486 65.7397L-318.93 65.7397L-256.901 80.4428L-191.302 80.4428ZM-271.077 80.4428L-333.106 65.7397L-405.172 65.7398L-335.233 80.4428L-271.077 80.4428ZM-351.125 80.4428L-421.065 65.7398L-491.842 65.7398L-413.904 80.4428L-351.125 80.4428ZM-431.541 80.4428L-509.479 65.7398H-577.569L-491.805 80.4428L-431.541 80.4428ZM-511.155 80.4428L-596.919 65.7398L-664.646 65.7398L-570.733 80.4428L-511.155 80.4428ZM-591.872 80.4428L-685.784 65.7398L-750.76 65.7398L-648.997 80.4428L-591.872 80.4428ZM-671.862 80.4428L-773.625 65.7398H-837.738L-727.925 80.4428L-671.862 80.4428ZM-752.562 80.4428L-862.375 65.7398H-925.39L-807.465 80.4428L-752.562 80.4428ZM-833.892 80.4428L-951.817 65.7398L-1012.46 65.7398L-886.428 80.4428L-833.892 80.4428ZM-914.644 80.4428L-1040.67 65.7398L-1097.35 65.7398L-963.574 80.4428L-914.644 80.4428ZM-993.502 80.4428L-1127.28 65.7398H-1185.68L-1043.61 80.4428L-993.502 80.4428ZM-1075.37 80.4428L-1217.44 65.7398L-1293.98 65.7398L-1148.98 80.4428L-1075.37 80.4428ZM-1181.39 80.4429L-1326.39 65.7398L-1380.5 65.7398L-1227.55 80.4429L-1181.39 80.4429ZM1820.99 80.4426L1978.38 65.7395L1925.3 65.7395L1776.11 80.4426L1820.99 80.4426ZM1742.77 80.4426L1891.96 65.7395L1836.81 65.7396L1695.68 80.4426L1742.77 80.4426ZM1664.13 80.4426L1805.26 65.7396L1751.41 65.7396L1617.75 80.4426L1664.13 80.4426ZM1587.85 80.4426L1721.51 65.7396L1661.89 65.7396L1536.49 80.4426L1587.85 80.4426ZM1508.41 80.4426L1633.81 65.7396L1573.5 65.7396L1456.14 80.4426L1508.41 80.4426ZM1429.84 80.4426L1547.2 65.7396L1487.16 65.7396L1377.45 80.4426L1429.84 80.4426ZM1352.84 80.4426L1462.55 65.7396L1399.05 65.7396L1297.33 80.4426L1352.84 80.4426ZM1274.48 80.4426L1376.2 65.7396L1307.19 65.7396L1215.01 80.4426L1274.48 80.4426ZM1194.25 80.4426L1286.43 65.7396L1222.63 65.7396L1136.71 80.4426L1194.25 80.4426ZM1117.33 80.4426L1203.24 65.7396L1134.06 65.7396L1056.16 80.4427L1117.33 80.4426ZM1038.53 80.4427L1116.43 65.7396L1050.79 65.7396L981.444 80.4427L1038.53 80.4427ZM965.681 80.4427L1035.02 65.7396L964.06 65.7396L902.311 80.4427L965.681 80.4427ZM888.195 80.4427L949.945 65.7396L875.302 65.7396L821.528 80.4427L888.195 80.4427ZM809.13 80.4427L862.905 65.7396L781.186 65.7396L734.632 80.4427L809.13 80.4427ZM723.836 80.4427L770.39 65.7396L692.228 65.7397L653.816 80.4427L723.836 80.4427ZM644.737 80.4427L683.149 65.7397L608.189 65.7397L578.36 80.4427L644.737 80.4427ZM571.036 80.4427L600.866 65.7397L524.149 65.7397L502.887 80.4427L571.036 80.4427ZM497.21 80.4427L518.471 65.7397L440.14 65.7397L427.459 80.4427L497.21 80.4427ZM423.192 80.4427L435.873 65.7397L356.15 65.7397L352.049 80.4427L423.192 80.4427ZM348.663 80.4427L352.765 65.7397L272.126 65.7397L276.606 80.4427L348.663 80.4427ZM273.198 80.4427L268.718 65.7397L189.093 65.7397L202.157 80.4427L273.198 80.4427ZM197.835 80.4427L184.771 65.7397L105.268 65.7397L126.901 80.4427L197.835 80.4427ZM121.156 80.4427L99.5227 65.7397L21.2268 65.7397L51.5623 80.4427L121.156 80.4427ZM-156.458 62.4701L-79.2524 62.4701L-126.649 44.3606L-213.474 44.3606L-156.458 62.4701ZM-224.275 44.3606L-167.259 62.4701L-245.05 62.4701L-311.786 44.3606L-224.275 44.3606ZM-324.271 44.3606L-257.535 62.4701L-332.724 62.4701L-409.125 44.3606L-324.271 44.3606ZM-423.301 44.3606L-346.9 62.4701L-420.725 62.4701L-506.868 44.3606L-423.301 44.3606ZM-522.76 44.3606L-436.617 62.4702L-509.173 62.4702L-605.167 44.3606H-522.76ZM-622.804 44.3606L-526.81 62.4702H-596.641L-702.275 44.3606H-622.804ZM-721.625 44.3606L-615.99 62.4702L-685.53 62.4702L-801.2 44.3606L-721.625 44.3606ZM-822.339 44.3606L-706.668 62.4702L-773.39 62.4702L-898.73 44.3606L-822.339 44.3606ZM-921.595 44.3606L-796.255 62.4702L-862.157 62.4702L-997.413 44.3606L-921.595 44.3606ZM-1022.05 44.3606L-886.795 62.4702L-951.614 62.4702L-1096.86 44.3606L-1022.05 44.3606ZM-1123.29 44.3606L-978.041 62.4702L-1040.48 62.4702L-1195.71 44.3606L-1123.29 44.3606ZM-1223.93 44.3606L-1068.7 62.4702L-1127.1 62.4702L-1291.87 44.3606H-1223.93ZM-1321.8 44.3606L-1157.03 62.4702L-1217.27 62.4702L-1392.25 44.3606H-1321.8ZM-1424.01 44.3606L-1249.03 62.4702L-1326.22 62.4702L-1504.82 44.3606H-1424.01ZM-1537.23 44.3606L-1358.63 62.4702L-1414.51 62.4702H-1414.55L-1602.9 44.3606L-1537.23 44.3606ZM2207.24 44.3606L2013.38 62.4699L1958.48 62.4699L2142.23 44.3606L2207.24 44.3606ZM2108.89 44.3606L1925.14 62.4699L1868.2 62.4699L2042.02 44.3606L2108.89 44.3606ZM2010.47 44.3606L1836.64 62.4699L1781.14 62.47L1945.76 44.3606H2010.47ZM1915.86 44.3606L1751.23 62.47L1689.78 62.47L1844.23 44.3606H1915.86ZM1816.15 44.3606L1661.7 62.47L1599.6 62.47L1744.14 44.3606H1816.15ZM1717.84 44.3606L1573.29 62.47L1511.56 62.47L1646.69 44.3606L1717.84 44.3606ZM1622.07 44.3606L1486.94 62.47L1421.67 62.47L1546.96 44.3606L1622.07 44.3606ZM1524.1 44.3606L1398.82 62.47L1327.69 62.47L1441.23 44.3606L1524.1 44.3606ZM1420.48 44.3606L1306.93 62.47L1241.73 62.47L1347.55 44.3606L1420.48 44.3606ZM1328.16 44.3606L1222.35 62.47L1151.38 62.47L1247.32 44.3606H1328.16ZM1229.69 44.3606L1133.75 62.47L1066.21 62.47L1151.62 44.3606H1229.69ZM1135.85 44.3606L1050.44 62.47L977.792 62.47L1053.85 44.3606L1135.85 44.3606ZM1039.73 44.3606L963.676 62.47L887.261 62.47L953.494 44.3606L1039.73 44.3606ZM941.097 44.3606L874.864 62.47L791.539 62.47L848.878 44.3606L941.097 44.3606ZM838.082 44.3606L780.742 62.47L700.77 62.47L748.081 44.3606L838.082 44.3606ZM739.001 44.3606L691.69 62.47L614.823 62.4701L651.564 44.3606L739.001 44.3606ZM644.24 44.3606L607.499 62.4701L528.877 62.4701L555.064 44.3606H644.24ZM549.386 44.3606L523.199 62.4701L442.96 62.4701L458.579 44.3606H549.386ZM454.312 44.3606L438.693 62.4701L357.062 62.4701L362.114 44.3606L454.312 44.3606ZM358.729 44.3606L353.677 62.4701L271.129 62.4701L265.612 44.3606L358.729 44.3606ZM262.204 44.3606L267.722 62.4701L186.188 62.4701L170.097 44.3606L262.204 44.3606ZM165.775 44.3606L181.866 62.4701L100.457 62.4701L73.812 44.3606L165.775 44.3606ZM68.0667 44.3606L94.7119 62.4701L14.481 62.4701L-22.8828 44.3606H68.0667ZM-135.206 41.091L-185.784 21.7659L-284.613 21.7659L-223.769 41.091L-135.206 41.091ZM-234.57 41.091L-295.414 21.7659L-395.052 21.7659L-323.835 41.091L-234.57 41.091ZM-336.32 41.091L-407.537 21.7659L-504.447 21.7659L-422.918 41.091L-336.32 41.091ZM-437.094 41.091L-518.623 21.7659L-614.346 21.7659L-522.421 41.091L-437.094 41.091ZM-538.313 41.091L-630.239 21.7659H-724.937L-622.499 41.091L-538.313 41.091ZM-640.136 41.091L-742.574 21.7659H-834.072L-721.347 41.091H-640.136ZM-740.697 41.091L-853.422 21.7659H-945.519L-822.084 41.091H-740.697ZM-843.223 41.091L-966.657 21.7659H-1055.11L-921.36 41.091H-843.223ZM-944.225 41.091L-1077.98 21.7659H-1166.17L-1021.83 41.091L-944.225 41.091ZM-1046.47 41.091L-1190.8 21.7659H-1278.08L-1123.09 41.091L-1046.47 41.091ZM-1149.51 41.091L-1304.51 21.7659L-1389.38 21.7659L-1223.74 41.091L-1149.51 41.091ZM-1251.95 41.091L-1417.6 21.7659L-1497.45 21.7659L-1321.62 41.091L-1251.95 41.091ZM-1351.55 41.091L-1527.38 21.7659L-1610.57 21.7659L-1423.84 41.091L-1351.55 41.091ZM-1455.6 41.091L-1642.33 21.7659L-1727.64 21.7659L-1537.06 41.091H-1455.6ZM-1569.47 41.091L-1760.05 21.7659L-1837.94 21.7659L-1636.91 41.091H-1569.47ZM2242.24 41.091L2449.1 21.7659L2371.5 21.7659L2175.41 41.091H2242.24ZM2142.07 41.091L2338.16 21.7659L2258.9 21.7659L2073.4 41.091H2142.07ZM2041.85 41.091L2227.35 21.7659L2151.17 21.7659L1975.49 41.091H2041.85ZM1945.59 41.091L2121.27 21.7659L2036.94 21.7659L1872.11 41.091L1945.59 41.091ZM1844.04 41.091L2008.86 21.7659L1924.49 21.7659L1770.24 41.091L1844.04 41.091ZM1743.94 41.091L1898.18 21.7659L1815.28 21.7659L1671.08 41.091L1743.94 41.091ZM1646.47 41.091L1790.67 21.7659L1703.28 21.7659L1569.58 41.091L1646.47 41.091ZM1546.72 41.091L1680.42 21.7659L1582.9 21.7659L1461.73 41.091L1546.72 41.091ZM1440.98 41.091L1562.14 21.7659H1479.57L1366.65 41.091H1440.98ZM1347.27 41.091L1460.19 21.7659H1367.02L1264.64 41.091H1347.27ZM1247.01 41.091L1349.4 21.7659H1258.18L1167.04 41.091L1247.01 41.091ZM1151.27 41.091L1242.41 21.7659H1148.74L1067.58 41.091L1151.27 41.091ZM1053.46 41.091L1134.62 21.7659L1036.13 21.7659L965.452 41.091L1053.46 41.091ZM953.055 41.091L1023.73 21.7659L920.419 21.7659L859.231 41.091L953.055 41.091ZM848.434 41.091L909.623 21.7659L807.11 21.7659L756.623 41.091L848.434 41.091ZM747.543 41.091L798.03 21.7659L697.405 21.7659L658.197 41.091L747.543 41.091ZM650.874 41.091L690.081 21.7659L587.737 21.7659L559.792 41.091H650.874ZM554.115 41.091L582.06 21.7659L478.066 21.7659L461.399 41.091L554.115 41.091ZM457.132 41.091L473.8 21.7659L368.417 21.7659L363.026 41.091L457.132 41.091ZM359.641 41.091L365.032 21.7659L258.727 21.7659L264.615 41.091L359.641 41.091ZM261.208 41.091L255.32 21.7659L150.021 21.7659L167.192 41.091L261.208 41.091ZM162.87 41.091L145.699 21.7659L40.5674 21.7659L69.0012 41.091L162.87 41.091ZM63.2559 41.091L34.822 21.7659L-69.5005 21.7659L-29.6287 41.091H63.2559ZM-185.247 18.4963L-83.6714 18.4963L-136.876 -7.29099L-136.33 -8.1071H-254.874L-185.247 18.4963ZM-263.731 -8.01642L-194.341 18.4963L-294.907 18.4963L-378.667 -8.1071L-263.683 -8.1071L-263.731 -8.01642ZM-389.468 -8.1071L-305.708 18.4963L-407.101 18.4963L-505.139 -8.1071H-389.468ZM-517.624 -8.1071L-419.586 18.4963L-518.241 18.4963L-630.476 -8.1071L-517.624 -8.1071ZM-644.651 -8.1071L-532.417 18.4963L-629.899 18.4963L-756.446 -8.1071H-644.651ZM-772.338 -8.1071L-645.791 18.4963L-742.268 18.4963L-883.287 -8.1071L-772.338 -8.1071ZM-900.924 -8.1071L-759.905 18.4963L-853.144 18.4963L-1008.32 -8.1071H-900.924ZM-1027.67 -8.1071L-872.494 18.4963L-966.403 18.4963L-1136.33 -8.1071H-1027.67ZM-1157.47 -8.1071L-987.541 18.4963L-1077.74 18.4963L-1261.87 -8.1071L-1157.47 -8.1071ZM-1284.74 -8.1071L-1100.61 18.4963H-1190.59L-1389.28 -8.1071H-1284.74ZM-1413.92 -8.1071L-1215.22 18.4963H-1304.31L-1517.68 -8.1071L-1413.92 -8.1071ZM-1544.1 -8.1071L-1330.73 18.4963H-1417.41L-1645.44 -8.1071H-1544.1ZM-1673.66 -8.1071L-1445.63 18.4963H-1527.2L-1769.26 -8.1071L-1673.66 -8.1071ZM-1799.19 -8.1071L-1557.13 18.4963H-1642.16L-1899.22 -8.1071H-1799.19ZM-1930.72 -8.08011L-1673.92 18.4963H-1759.89L-2022.25 -8.1071L-1930.71 -8.1071L-1930.72 -8.08011ZM-2054.66 -8.1071L-1792.3 18.4963H-1871.95L-2148.7 -8.1071H-2054.66ZM2768.88 -8.1071L2484.1 18.4963L2404.67 18.4963L2674.61 -8.1071L2768.88 -8.1071ZM2641.28 -8.1071L2371.33 18.4963L2290.28 18.4963L2545.64 -8.1071H2641.28ZM2514.09 -8.1071L2258.73 18.4963H2180.89L2422.74 -8.1071L2514.09 -8.1071ZM2392.84 -8.1071L2150.99 18.4963H2064.82L2291.72 -8.1071H2392.84ZM2263.64 -8.1071L2036.75 18.4963H1950.58L2162.93 -8.1071L2263.64 -8.1071ZM2136.62 -8.1071L1924.28 18.4963H1839.68L2038.19 -8.1071H2136.62ZM2013.57 -8.1071L1815.06 18.4963H1725.9L1909.95 -8.1071L2013.57 -8.1071ZM1887.09 -8.1071L1703.04 18.4963H1603.4L1770.2 -8.1071H1887.09ZM1749.44 -8.1071L1582.64 18.4963H1498.68L1654.12 -8.1071H1749.44ZM1634.74 -8.1071L1479.29 18.4963L1384.35 18.4963L1525.29 -8.1071L1634.74 -8.1071ZM1507.66 -8.1071L1366.72 18.4963L1273.6 18.4963L1399.07 -8.1071H1507.66ZM1383.3 -8.1071L1257.83 18.4963L1162.47 18.4963L1274.2 -8.1071L1383.3 -8.1071ZM1260.08 -8.1071L1148.36 18.4963L1048.09 18.4963L1145.39 -8.1071H1260.08ZM1132.99 -8.1071L1035.69 18.4963L930.772 18.4963L1015.01 -8.1071L1132.99 -8.1071ZM1004.21 -8.1071L919.975 18.4963L815.652 18.4963L885.154 -8.1071H1004.21ZM876.074 -8.1071L806.572 18.4963L704.038 18.4963L758.012 -8.1071L876.074 -8.1071ZM750.688 -8.1071L696.714 18.4963L592.465 18.4963L630.936 -8.1071H750.688ZM625.258 -8.1071L586.788 18.4963L480.886 18.4963L503.831 -8.1071L625.258 -8.1071ZM499.564 -8.1071L476.619 18.4963L369.329 18.4963L376.75 -8.1071H499.564ZM373.365 -8.1071L365.944 18.4963L257.731 18.4963L249.625 -8.1071H373.365ZM246.218 -8.1071L254.323 18.4963L147.115 18.4963L123.477 -8.1071L246.218 -8.1071ZM119.156 -8.1071L142.794 18.4963L35.7566 18.4963L-3.38623 -8.1071H119.156Z"
    fill="url(#paint0_linear_19_847)" />
  <defs>
    <linearGradient id="paint0_linear_19_847" x1="312.617" y1="142.712" x2="312.617" y2="-12.7088"
      gradientUnits="userSpaceOnUse">
      <stop stop-color="#DADADA" stop-opacity="0" />
      <stop offset="1" stop-color="#D6D6D6" />
    </linearGradient>
  </defs>
</svg>
  