<svg width="1722" height="132" viewBox="0 0 1722 132" fill="none" xmlns="http://www.w3.org/2000/svg">
  <path fill-rule="evenodd" clip-rule="evenodd"
    d="M417.002 -19.3984L471.89 7.20508L578.148 7.20508L539.363 -19.1555L539.591 -19.3984L417.002 -19.3984ZM511.083 29.7998L471.211 10.4747L371.447 10.4747L422.025 29.7998H511.083ZM517.829 33.0694L555.193 51.1788L477.978 51.1789L430.582 33.0694L517.829 33.0694ZM592.274 69.1515L561.938 54.4485L486.535 54.4485L525.016 69.1515L592.274 69.1515ZM599.02 72.4211L622.342 83.7247L563.158 83.7247L533.574 72.4211L599.02 72.4211ZM652.405 98.296L629.087 86.9943L571.715 86.9943L601.294 98.296L652.405 98.296ZM659.151 101.566L682.471 112.868L639.433 112.868L609.851 101.566L659.151 101.566ZM712.537 127.44L689.217 116.138L647.99 116.138L677.571 127.44L712.537 127.44ZM719.282 130.71L720.748 131.42L721.223 130.71L1375.5 130.71L1375.54 130.972L1377.19 130.71L1753.58 130.71V129.939L1901.32 116.138L1908.73 116.138V115.445L2057.3 101.565H2063.53V100.984L2213.28 86.9942H2220.69V86.3025L2369.28 72.4209H2375.84V71.8085L2561.67 54.4483H2569.14V53.7503L2790.52 33.0694H2795.56V32.5993L3032.39 10.4747H3046.25V9.18036L3352.17 -19.3984H3360.71V-20.1965L3360.77 -20.2017L3360.71 -20.8021V-22.668H3360.54L3360.46 -23.4571L3352.02 -22.668L3232.3 -22.668L3232.21 -23.616L3222.59 -22.668H3104.08L3103.97 -23.7472L3093.61 -22.668L2975.74 -22.668L2975.68 -23.2166L2970.7 -22.668H2848.07L2847.95 -23.6393L2839.67 -22.668L2719.83 -22.668L2719.69 -23.7741L2710.86 -22.668H2591.52L2591.42 -23.3803L2586.11 -22.668L2463.24 -22.668L2463.13 -23.4316L2457.85 -22.668H2321.65L2321.56 -23.2245L2318.07 -22.668L2209.99 -22.668L2209.77 -24.0001L2201.98 -22.668L2080.28 -22.668L2080.03 -23.9734L2073.12 -22.668H1950.63L1950.46 -23.4323L1946.86 -22.668L1822.6 -22.668L1822.57 -22.8147L1821.95 -22.668H1694.66L1694.55 -23.069L1693.09 -22.668L1566.54 -22.668L1566.08 -23.7355L1562.7 -22.668H1436.75L1436.08 -23.9408L1432.75 -22.668L1308.52 -22.668L1307.75 -23.7993L1305.46 -22.668H1179.94L1179.22 -23.4233L1178.12 -22.668L1050.85 -22.668L1050.63 -22.8002L1050.52 -22.668L159.176 -22.668L157.066 -23.338L156.854 -22.668H30.949L29.0559 -23.1817L28.9165 -22.668L-96.1328 -22.668L-98.8093 -23.3024L-98.9597 -22.668H-223.862L-226.914 -23.3097L-227.049 -22.668L-352.481 -22.668L-355.006 -23.1443L-355.096 -22.668L-479.259 -22.668L-483.452 -23.3869L-483.576 -22.668H-609.074L-611.819 -23.0978L-611.887 -22.668L-736.365 -22.668L-740.073 -23.2036L-740.15 -22.668H-865.563L-868.491 -23.06L-868.543 -22.668L-995.765 -22.668L-996.878 -22.8068L-996.895 -22.668H-1125.33L-1125.48 -22.6851L-1125.48 -22.668L-1250.87 -22.668L-1253.77 -22.9868L-1253.81 -22.668L-1506.36 -22.668L-1510.6 -23.0984L-1510.64 -22.668L-1634.57 -22.668L-1638.95 -23.0883L-1638.99 -22.668H-1639.22V-20.2247L-1639.26 -19.8337L-1639.22 -19.8301V-19.3984H-1634.73L-1333.47 9.56211V10.4747H-1323.97L-1090.02 32.9644V33.0694H-1088.93L-679.625 72.4212H-679.573L-73.3162 130.701V130.71H-73.2195L-72.1816 130.81L-72.1721 130.71L-26.1719 130.71L-25.2925 130.799L-25.2834 130.71L67.573 130.71L68.469 130.803L68.4785 130.71L114.735 130.71L115.346 130.777L115.354 130.71L161.149 130.71L162.2 130.833L162.214 130.71L207.974 130.71L209.079 130.848L209.096 130.71L255.339 130.71L255.959 130.793L255.97 130.71L302.336 130.71L302.82 130.78L302.83 130.71L349.457 130.71L349.693 130.747L349.698 130.71L396.058 130.71L396.542 130.793L396.556 130.71L442.904 130.71L443.4 130.804L443.417 130.71L489.832 130.71L490.246 130.797L490.264 130.71L536.763 130.71L537.104 130.791L537.123 130.71L583.688 130.71L583.927 130.775L583.945 130.71L677.034 130.71L678.328 131.204L678.588 130.71L719.282 130.71ZM571.639 127.44L529.987 116.138L489.461 116.138L537.145 127.44L571.639 127.44ZM522.969 127.44L475.286 116.138L436.408 116.138L490.172 127.441L522.969 127.44ZM474.279 127.441L420.515 116.138L383.296 116.138L443.209 127.441L474.279 127.441ZM425.572 127.441L365.659 116.138L330.407 116.138L396.336 127.441L425.572 127.441ZM376.987 127.441L311.057 116.138L277.519 116.138L349.712 127.441L376.987 127.441ZM328.573 127.441L256.38 116.138L224.343 116.138L302.571 127.441L328.573 127.441ZM279.706 127.441L201.478 116.138L171.14 116.138L255.557 127.441L279.706 127.441ZM230.919 127.441L146.502 116.138L117.525 116.138L208.177 127.441L230.919 127.441ZM181.751 127.441L91.0981 116.138L64.457 116.138L161.339 127.441L181.751 127.441ZM133.123 127.441L36.2412 116.138L12.0752 116.138L114.914 127.441L133.123 127.441ZM84.9856 127.441L-17.853 116.138L-41.4695 116.138L67.7417 127.441L84.9856 127.441ZM35.9807 127.441L-73.2302 116.138L-137.471 116.138L-26.0061 127.441L35.9807 127.441ZM-58.416 127.441L-169.881 116.138L-190.639 116.138L-73.0625 127.441L-58.416 127.441ZM584.124 127.44L542.472 116.138L585.398 116.138L620.984 127.44L584.124 127.44ZM631.785 127.44L668.477 127.44L638.896 116.138L596.199 116.138L631.785 127.44ZM1751.71 127.44L1751.65 126.835L1866.16 116.138L1847.48 116.138L1732.79 127.44L1751.71 127.44ZM1703.34 127.44L1703.31 127.061L1814.14 116.138L1792.81 116.138L1684.32 127.44L1703.34 127.44ZM1656.43 127.44L1656.39 127.062L1761.26 116.138L1738.74 116.138L1635.99 127.44L1656.43 127.44ZM1609.55 127.44L1609.51 127.064L1708.84 116.138L1683.88 116.138L1587.48 127.44L1609.55 127.44ZM1562.63 127.44L1562.59 127.067L1655.8 116.138L1629.24 116.138L1539.03 127.44L1562.63 127.44ZM1515.73 127.44L1515.68 127.07L1602.94 116.138L1574.99 116.138L1490.65 127.44L1515.73 127.44ZM1468.82 127.44L1468.77 127.074L1550.37 116.138L1520.4 116.138L1442.21 127.44L1468.82 127.44ZM1421.91 127.44L1421.86 127.078L1497.55 116.138L1468.55 116.138L1397.69 127.44L1421.91 127.44ZM1376.93 127.44L1447.79 116.138L1410.3 116.138L1344.26 127.44L1376.93 127.44ZM1328.09 127.44L1328 126.906L1390.92 116.138L1355.37 116.138L1295.49 127.44L1328.09 127.44ZM1281.17 127.44L1281.06 126.837L1337.74 116.138L1307.98 116.138L1254.68 127.44L1281.17 127.44ZM1238.91 127.44L1292.22 116.138L1253.12 116.138L1205.65 127.44L1238.91 127.44ZM1191.53 127.44L1239 116.138L1197.82 116.138L1156.48 127.44L1191.53 127.44ZM1144.5 127.44L1144.47 127.335L1185.42 116.138L1134 116.138L1098.21 127.44L1144.5 127.44ZM1089.44 127.44L1089.19 126.879L1123.2 116.138L1079.2 116.138L1049.67 127.44L1089.44 127.44ZM1042.99 127.44L1042.59 126.677L1070.12 116.138L1031.17 116.138L1008.24 127.44L1042.99 127.44ZM1002.47 127.44L1002.08 126.864L1023.85 116.138L983.079 116.138L966.734 127.44L1002.47 127.44ZM961.745 127.44L961.471 127.154L977.401 116.138L935.071 116.138L925.323 127.44L961.745 127.44ZM921.056 127.44L930.804 116.138L887.078 116.138L883.925 127.44L921.056 127.44ZM880.54 127.44L883.693 116.138L839.059 116.138L842.503 127.44L880.54 127.44ZM839.095 127.44L835.651 116.138L792.043 116.138L802.085 127.44L839.095 127.44ZM797.764 127.44L787.721 116.138L744.171 116.138L760.801 127.44L797.764 127.44ZM755.056 127.44L719.961 127.44L696.642 116.138L738.426 116.138L755.056 127.44ZM600.757 101.566L630.338 112.868L585.905 112.868L550.319 101.566L600.757 101.566ZM575.104 112.868L530.423 112.868L488.771 101.566L539.518 101.566L575.104 112.868ZM476.286 101.566L517.938 112.868L475.668 112.868L427.984 101.566L476.286 101.566ZM413.808 101.566L461.492 112.868L420.855 112.868L367.091 101.566L413.808 101.566ZM351.198 101.566L404.962 112.868L365.965 112.868L306.052 101.566L351.198 101.566ZM288.415 101.566L348.328 112.868L311.335 112.868L245.406 101.566L288.415 101.566ZM226.056 101.566L291.985 112.868L256.635 112.868L184.442 101.566L226.056 101.566ZM163.303 101.566L235.496 112.868L201.713 112.868L123.485 101.566L163.303 101.566ZM100.62 101.566L178.848 112.868L146.72 112.868L62.3042 101.566L100.62 101.566ZM37.6665 101.566L122.083 112.868L91.301 112.868L0.648438 101.566L37.6665 101.566ZM-25.7783 101.566L64.8743 112.868L36.4312 112.868L-60.4507 101.566L-25.7783 101.566ZM-88.6665 101.566L8.21533 112.868L-17.6738 112.868L-120.512 101.566L-88.6665 101.566ZM-150.441 101.566L-47.6021 112.868L-73.0618 112.868L-182.273 101.566L-150.441 101.566ZM-214.033 101.566L-104.823 112.868L-169.716 112.868L-281.181 101.566L-214.033 101.566ZM-313.591 101.566L-202.125 112.868L-224.607 112.868V112.873L-342.227 101.566L-313.591 101.566ZM2022.15 101.565L1901.16 112.868L1880.65 112.868L1995.34 101.565L2022.15 101.565ZM1962 101.565L1847.32 112.868L1824.19 112.868L1932.68 101.565L1962 101.565ZM1901.13 101.565L1792.64 112.868L1768.46 112.868L1871.21 101.565L1901.13 101.565ZM1841.31 101.565L1738.56 112.868L1711.77 112.868L1808.17 101.565L1841.31 101.565ZM1780.09 101.565L1683.69 112.868L1655.34 112.868L1745.56 101.565L1780.09 101.565ZM1719.26 101.565L1629.04 112.868L1599.38 112.868L1683.72 101.565L1719.26 101.565ZM1659.11 101.566L1574.77 112.868L1543.02 112.868L1621.22 101.566L1659.11 101.566ZM1598.36 101.566L1520.17 112.868L1489.05 112.868L1559.92 101.566L1598.36 101.566ZM1539.16 101.566L1468.29 112.868L1429.41 112.868L1495.45 101.566L1539.16 101.566ZM1476.07 101.566L1410.03 112.868L1372.69 112.868L1432.57 101.566L1476.07 101.566ZM1414.94 101.566L1355.06 112.868L1323.4 112.868L1376.71 101.566L1414.94 101.566ZM1360.95 101.566L1307.64 112.868L1266.85 112.868L1314.32 101.566L1360.95 101.566ZM1300.2 101.566L1252.73 112.868L1209.77 112.868L1251.11 101.566L1300.2 101.566ZM1238.72 101.566L1197.38 112.868L1144.35 112.868L1180.14 101.566L1238.72 101.566ZM1169.34 101.566L1133.55 112.868L1087.74 112.868L1117.27 101.566L1169.34 101.566ZM1108.19 101.566L1078.66 112.868L1037.8 112.868L1060.73 101.566L1108.19 101.566ZM1053.41 101.566L1030.48 112.868L987.807 112.868L1004.15 101.566L1053.41 101.566ZM998.474 101.566L982.129 112.868L937.891 112.868L947.639 101.566L998.474 101.566ZM943.373 101.566L933.624 112.868L887.99 112.868L891.143 101.566L943.373 101.566ZM887.758 101.566L884.605 112.868L838.062 112.868L834.619 101.566L887.758 101.566ZM831.211 101.566L834.655 112.868L789.137 112.868L779.095 101.566L831.211 101.566ZM774.773 101.566L784.816 112.868L739.36 112.868L722.73 101.566L774.773 101.566ZM716.985 101.566L733.615 112.868L689.896 112.868L666.576 101.566L716.985 101.566ZM592.2 98.296L540.025 98.296L504.442 86.9943L562.621 86.9943L592.2 98.296ZM529.224 98.296L493.641 86.9943L435.073 86.9943L476.721 98.296L529.224 98.296ZM464.237 98.296L422.588 86.9943L366.511 86.9943L414.19 98.296L464.237 98.296ZM400.014 98.296L352.335 86.9943L297.778 86.9943L351.538 98.296L400.014 98.296ZM335.645 98.296L281.886 86.9943L228.813 86.9944L288.721 98.296L335.645 98.296ZM271.084 98.296L211.176 86.9944L160.411 86.9944L226.334 98.296L271.084 98.296ZM206.984 98.296L141.061 86.9944L91.3708 86.9944L163.558 98.296L206.984 98.296ZM142.419 98.296L70.2324 86.9944L22.634 86.9944L100.855 98.296L142.419 98.296ZM77.9905 98.296L-0.230957 86.9944L-46.5247 86.9944L37.8843 98.296H77.9905ZM13.2466 98.296L-71.1624 86.9944L-116.22 86.9944L-25.5752 98.296L13.2466 98.296ZM-52.002 98.296L-142.647 86.9944L-185.35 86.9944L-88.4763 98.296H-52.002ZM-116.692 98.2961L-213.566 86.9944L-253.091 86.9944L-150.261 98.2961L-116.692 98.2961ZM-180.19 98.2961L-283.02 86.9944L-323.066 86.9944L-213.865 98.2961L-180.19 98.2961ZM-245.626 98.2961L-354.827 86.9944L-424.88 86.9944L-313.425 98.2961L-245.626 98.2961ZM-345.835 98.2961L-457.29 86.9944L-493.805 86.9944L-376.211 98.2961L-345.835 98.2961ZM2057.15 98.2959L2178.13 86.9942L2143.19 86.9942L2028.52 98.2959L2057.15 98.2959ZM1995.18 98.2959L2109.86 86.9942H2072.55L1964.07 98.2959H1995.18ZM1932.51 98.2959L2041 86.9942L2003.68 86.9942L1900.94 98.2959L1932.51 98.2959ZM1871.04 98.2959L1973.78 86.9942L1932.44 86.9942L1836.05 98.2959L1871.04 98.2959ZM1807.98 98.2959L1904.37 86.9942L1861.86 86.9942L1771.65 98.2959L1807.98 98.2959ZM1745.35 98.2959L1835.56 86.9942L1792.45 86.9942L1708.12 98.2959L1745.35 98.2959ZM1683.5 98.2959L1767.83 86.9942L1722.03 86.9942L1643.84 98.2959L1683.5 98.2959ZM1620.98 98.2959L1699.17 86.9942L1651.27 86.9942L1580.42 98.2959L1620.98 98.2959ZM1559.66 98.2959L1630.52 86.9942L1580.59 86.9942L1514.56 98.2959L1559.66 98.2959ZM1495.17 98.2959L1561.21 86.9942L1509.77 86.9942L1449.89 98.2959L1495.17 98.2959ZM1432.27 98.2959L1492.14 86.9942L1445.43 86.9942L1392.13 98.2959L1432.27 98.2959ZM1376.37 98.2959L1429.67 86.9942L1375.51 86.9943L1328.05 98.2959L1376.37 98.2959ZM1313.93 98.2959L1361.4 86.9943L1304.41 86.9943L1263.07 98.2959L1313.93 98.2959ZM1250.67 98.2959L1292.01 86.9943L1226.27 86.9943L1190.49 98.2959L1250.67 98.2959ZM1179.69 98.2959L1215.48 86.9943L1155.34 86.9943L1125.81 98.2959L1179.69 98.2959ZM1116.73 98.2959L1146.26 86.9943L1090.3 86.9943L1067.37 98.2959L1116.73 98.2959ZM1060.04 98.2959L1082.97 86.9943L1025.22 86.9943L1008.88 98.296L1060.04 98.2959ZM1003.2 98.296L1019.54 86.9943L960.207 86.9943L950.459 98.296L1003.2 98.296ZM946.193 98.296L955.94 86.9943L895.208 86.9943L892.055 98.296L946.193 98.296ZM888.67 98.296L891.823 86.9943L830.179 86.9943L833.623 98.296L888.67 98.296ZM830.215 98.296L826.771 86.9943L766.147 86.9943L776.189 98.296L830.215 98.296ZM771.868 98.296L761.826 86.9943L701.291 86.9943L717.919 98.296L771.868 98.296ZM712.174 98.296L695.546 86.9943L636.512 86.9943L659.83 98.296L712.174 98.296ZM524.479 72.4211L554.063 83.7247L494.148 83.7247L458.559 72.4211L524.479 72.4211ZM447.758 72.4211L483.347 83.7247L423.024 83.7247L381.368 72.4211L447.758 72.4211ZM368.883 72.4211L410.539 83.7247L352.717 83.7247L305.029 72.4211L368.883 72.4211ZM290.854 72.4211L338.541 83.7247L282.226 83.7247L228.457 72.4211L290.854 72.4211ZM212.564 72.4211L266.333 83.7247L211.482 83.7247L151.564 72.4211L212.564 72.4211ZM133.927 72.4211L193.845 83.7247L141.339 83.7248L75.4038 72.4211L133.927 72.4211ZM56.054 72.4211L121.989 83.7248L70.4871 83.7248L-1.7124 72.4211L56.054 72.4211ZM-78.2307 72.4212L-22.8508 72.4211L49.3486 83.7248L0.00415039 83.7248L-78.2307 72.4212ZM-101.096 72.4212L-22.8608 83.7248L-70.9446 83.7248L-155.368 72.4212L-101.096 72.4212ZM-180.006 72.4212L-95.5823 83.7248L-142.444 83.7248L-233.104 72.4212L-180.006 72.4212ZM-259.531 72.4212L-168.871 83.7248L-213.376 83.7248L-310.266 72.4212L-259.531 72.4212ZM-338.482 72.4212L-241.592 83.7248L-282.84 83.7248L-385.688 72.4212L-338.482 72.4212ZM-415.616 72.4212L-312.769 83.7248L-354.659 83.7248L-463.879 72.4212L-415.616 72.4212ZM-495.64 72.4212L-386.42 83.7248L-457.125 83.7248L-568.599 72.4212L-495.64 72.4212ZM-601.009 72.4212L-489.535 83.7248L-527.758 83.7248V83.7305L-645.404 72.4212L-601.009 72.4212ZM2334.13 72.4209L2213.13 83.7246L2176.37 83.7246L2291.07 72.4209L2334.13 72.4209ZM2257.73 72.4209L2143.03 83.7246L2103.93 83.7246L2212.43 72.421L2257.73 72.4209ZM2180.88 72.421L2072.38 83.7246L2033.4 83.7246L2136.16 72.421L2180.88 72.421ZM2106.26 72.421L2003.5 83.7246L1960.33 83.7246L2056.74 72.421L2106.26 72.421ZM2028.66 72.421L1932.25 83.7246L1887.96 83.7246L1978.18 72.421L2028.66 72.421ZM1951.88 72.421L1861.66 83.7246L1816.85 83.7246L1901.19 72.421L1951.88 72.421ZM1876.58 72.421L1792.23 83.7246L1744.65 83.7246L1822.85 72.421L1876.58 72.421ZM1799.99 72.421L1721.79 83.7246L1671.77 83.7246L1742.65 72.421L1799.99 72.421ZM1721.89 72.421L1651.02 83.7246L1599.7 83.7246L1665.75 72.421L1721.89 72.421ZM1646.36 72.421L1580.32 83.7246L1527.09 83.7246L1586.98 72.421L1646.36 72.421ZM1569.35 72.421L1509.46 83.7246L1460.85 83.7246L1514.16 72.421L1569.35 72.421ZM1498.4 72.421L1445.09 83.7246L1389.24 83.7246L1436.72 72.421L1498.4 72.421ZM1422.6 72.421L1375.13 83.7246L1316.36 83.7247L1357.71 72.421L1422.6 72.421ZM1345.31 72.421L1303.97 83.7247L1236.63 83.7247L1272.42 72.421L1345.31 72.421ZM1261.62 72.421L1225.83 83.7247L1163.88 83.7247L1193.41 72.421L1261.62 72.421ZM1184.33 72.421L1154.8 83.7247L1096.93 83.7247L1119.86 72.421L1184.33 72.421ZM1112.54 72.421L1089.61 83.7247L1029.95 83.7247L1046.3 72.4211L1112.54 72.421ZM1040.62 72.4211L1024.27 83.7247L963.027 83.7247L972.776 72.4211L1040.62 72.4211ZM968.509 72.4211L958.76 83.7247L896.12 83.7247L899.273 72.4211L968.509 72.4211ZM895.888 72.4211L892.735 83.7247L829.183 83.7247L825.739 72.4211L895.888 72.4211ZM822.331 72.4211L825.775 83.7247L763.242 83.7247L753.199 72.4211L822.331 72.4211ZM748.877 72.4211L758.921 83.7247L696.48 83.7247L679.849 72.4211L748.877 72.4211ZM674.103 72.4211L690.735 83.7247L629.767 83.7247L606.445 72.4211L674.103 72.4211ZM515.922 69.1515L477.441 54.4485L401.973 54.4485L448.265 69.1515L515.922 69.1515ZM369.319 69.1515L437.464 69.1515L391.172 54.4485L315.136 54.4485L369.319 69.1515ZM356.834 69.1515L302.651 54.4485L229.206 54.4485L291.235 69.1515L356.834 69.1515ZM277.06 69.1515L215.031 54.4485L142.965 54.4485L212.904 69.1515L277.06 69.1515ZM197.011 69.1515L127.072 54.4485L56.2952 54.4485L134.233 69.1515L197.011 69.1515ZM116.596 69.1515L38.6582 54.4485H-29.4321L56.3318 69.1515L116.596 69.1515ZM36.9819 69.1515L-48.782 54.4485L-116.509 54.4485L-22.5964 69.1515L36.9819 69.1515ZM-43.7349 69.1515L-137.647 54.4485L-202.624 54.4485L-100.86 69.1515L-43.7349 69.1515ZM-123.725 69.1515L-225.489 54.4485H-289.601L-179.788 69.1516L-123.725 69.1515ZM-204.426 69.1516L-314.239 54.4485H-377.253L-259.328 69.1516L-204.426 69.1516ZM-285.755 69.1516L-403.68 54.4485L-464.32 54.4485L-338.292 69.1516L-285.755 69.1516ZM-366.508 69.1516L-492.536 54.4485L-549.215 54.4485L-415.437 69.1516L-366.508 69.1516ZM-445.365 69.1516L-579.143 54.4486H-637.538L-495.471 69.1516L-445.365 69.1516ZM-527.232 69.1516L-669.299 54.4486L-745.843 54.4486L-600.844 69.1516L-527.232 69.1516ZM-633.254 69.1516L-778.253 54.4486L-832.365 54.4486L-679.416 69.1516L-633.254 69.1516ZM2369.13 69.1513L2526.52 54.4483L2473.44 54.4483L2324.24 69.1513L2369.13 69.1513ZM2290.91 69.1513L2440.1 54.4483L2384.95 54.4483L2243.82 69.1513L2290.91 69.1513ZM2212.26 69.1513L2353.39 54.4483L2299.55 54.4483L2165.89 69.1513L2212.26 69.1513ZM2135.98 69.1513L2269.65 54.4483L2210.03 54.4483L2084.62 69.1514L2135.98 69.1513ZM2056.55 69.1514L2181.95 54.4483L2121.64 54.4483L2004.28 69.1514L2056.55 69.1514ZM1977.98 69.1514L2095.33 54.4483L2035.3 54.4483L1925.59 69.1514L1977.98 69.1514ZM1900.97 69.1514L2010.68 54.4483L1947.19 54.4483L1845.47 69.1514L1900.97 69.1514ZM1822.61 69.1514L1924.33 54.4483L1855.33 54.4483L1763.15 69.1514L1822.61 69.1514ZM1742.39 69.1514L1834.57 54.4483L1770.76 54.4483L1684.85 69.1514L1742.39 69.1514ZM1665.47 69.1514L1751.38 54.4483L1682.19 54.4484L1604.3 69.1514L1665.47 69.1514ZM1586.67 69.1514L1664.57 54.4484L1598.92 54.4484L1529.58 69.1514L1586.67 69.1514ZM1513.82 69.1514L1583.16 54.4484L1512.2 54.4484L1450.45 69.1514L1513.82 69.1514ZM1436.33 69.1514L1498.08 54.4484L1423.44 54.4484L1369.66 69.1514L1436.33 69.1514ZM1357.27 69.1514L1411.04 54.4484L1329.32 54.4484L1282.77 69.1514L1357.27 69.1514ZM1271.97 69.1514L1318.53 54.4484L1240.36 54.4484L1201.95 69.1514L1271.97 69.1514ZM1192.87 69.1514L1231.29 54.4484L1156.33 54.4484L1126.5 69.1514L1192.87 69.1514ZM1119.17 69.1514L1149 54.4484L1072.29 54.4484L1051.02 69.1514L1119.17 69.1514ZM1045.35 69.1514L1066.61 54.4484L988.277 54.4484L975.596 69.1515L1045.35 69.1514ZM971.329 69.1515L984.01 54.4484L904.287 54.4484L900.186 69.1515L971.329 69.1515ZM896.8 69.1515L900.902 54.4484L820.262 54.4484L824.742 69.1515L896.8 69.1515ZM821.335 69.1515L816.855 54.4484L737.229 54.4484L750.294 69.1515L821.335 69.1515ZM745.972 69.1515L732.908 54.4484L653.405 54.4484L675.038 69.1515L745.972 69.1515ZM669.293 69.1515L647.659 54.4484L569.364 54.4485L599.699 69.1515L669.293 69.1515ZM391.679 51.1789L468.884 51.1789L421.488 33.0694L334.662 33.0694L391.679 51.1789ZM323.861 33.0694L380.878 51.1789L303.087 51.1789L236.35 33.0694L323.861 33.0694ZM223.865 33.0694L290.602 51.1789L215.412 51.1789L139.012 33.0694L223.865 33.0694ZM124.836 33.0694L201.237 51.1789L127.412 51.1789L41.2688 33.0694L124.836 33.0694ZM25.3762 33.0694L111.519 51.1789L38.9636 51.1789L-57.0308 33.0694H25.3762ZM-74.6677 33.0694L21.3267 51.1789H-48.5039L-154.138 33.0694H-74.6677ZM-173.488 33.0694L-67.8538 51.1789L-137.393 51.1789L-253.063 33.0694L-173.488 33.0694ZM-274.202 33.0694L-158.531 51.1789L-225.253 51.1789L-350.594 33.0694L-274.202 33.0694ZM-373.459 33.0694L-248.118 51.1789L-314.021 51.1789L-449.276 33.0694L-373.459 33.0694ZM-473.914 33.0694L-338.658 51.1789L-403.477 51.1789L-548.725 33.0694L-473.914 33.0694ZM-575.151 33.0694L-429.904 51.1789L-492.346 51.1789L-647.574 33.0694L-575.151 33.0694ZM-675.79 33.0694L-520.562 51.1789L-578.964 51.179L-743.736 33.0694H-675.79ZM-773.665 33.0694L-608.892 51.179L-669.131 51.179L-844.113 33.0694H-773.665ZM-875.874 33.0694L-700.891 51.179L-778.087 51.179L-956.681 33.0694H-875.874ZM-989.091 33.0694L-810.497 51.179L-866.377 51.179H-866.418L-1054.76 33.0694L-989.091 33.0694ZM2755.37 33.0694L2561.52 51.1787L2506.61 51.1787L2690.37 33.0694L2755.37 33.0694ZM2657.03 33.0694L2473.27 51.1787L2416.33 51.1787L2590.16 33.0694L2657.03 33.0694ZM2558.6 33.0694L2384.78 51.1787L2329.27 51.1787L2493.9 33.0694H2558.6ZM2464 33.0694L2299.37 51.1787L2237.91 51.1787L2392.36 33.0694H2464ZM2364.29 33.0694L2209.83 51.1787L2147.73 51.1787L2292.28 33.0694H2364.29ZM2265.98 33.0694L2121.43 51.1787L2059.7 51.1787L2194.82 33.0694L2265.98 33.0694ZM2170.21 33.0694L2035.08 51.1787L1969.81 51.1787L2095.1 33.0694L2170.21 33.0694ZM2072.24 33.0694L1946.95 51.1787L1875.83 51.1787L1989.37 33.0694L2072.24 33.0694ZM1968.61 33.0694L1855.07 51.1787L1789.87 51.1787L1895.68 33.0694L1968.61 33.0694ZM1876.3 33.0694L1770.49 51.1787L1699.52 51.1787L1795.46 33.0694H1876.3ZM1777.83 33.0694L1681.89 51.1787L1614.34 51.1788L1699.75 33.0694H1777.83ZM1683.99 33.0694L1598.58 51.1788L1525.93 51.1788L1601.98 33.0694L1683.99 33.0694ZM1587.87 33.0694L1511.81 51.1788L1435.4 51.1788L1501.63 33.0694L1587.87 33.0694ZM1489.23 33.0694L1423 51.1788L1339.68 51.1788L1397.01 33.0694L1489.23 33.0694ZM1386.22 33.0694L1328.88 51.1788L1248.91 51.1788L1296.22 33.0694L1386.22 33.0694ZM1287.14 33.0694L1239.83 51.1788L1162.96 51.1788L1199.7 33.0694L1287.14 33.0694ZM1192.38 33.0694L1155.64 51.1788L1077.01 51.1788L1103.2 33.0694H1192.38ZM1097.52 33.0694L1071.34 51.1788L991.097 51.1788L1006.72 33.0694H1097.52ZM1002.45 33.0694L986.83 51.1788L905.199 51.1788L910.251 33.0694L1002.45 33.0694ZM906.865 33.0694L901.814 51.1788L819.266 51.1788L813.748 33.0694L906.865 33.0694ZM810.341 33.0694L815.859 51.1788L734.324 51.1788L718.233 33.0694L810.341 33.0694ZM713.912 33.0694L730.003 51.1788L648.594 51.1788L621.949 33.0694L713.912 33.0694ZM616.203 33.0694L642.849 51.1788L562.618 51.1788L525.254 33.0694H616.203ZM412.931 29.7998L362.353 10.4747L263.524 10.4747L324.368 29.7998L412.931 29.7998ZM313.567 29.7998L252.723 10.4747L153.085 10.4747L224.301 29.7998L313.567 29.7998ZM211.816 29.7998L140.6 10.4747L43.6895 10.4747L125.218 29.7998L211.816 29.7998ZM111.042 29.7998L29.5137 10.4747L-66.2092 10.4747L25.7161 29.7998L111.042 29.7998ZM9.82349 29.7998L-82.1018 10.4747H-176.8L-74.3623 29.7998L9.82349 29.7998ZM-91.9993 29.7998L-194.437 10.4747H-285.935L-173.21 29.7998H-91.9993ZM-192.56 29.7998L-305.285 10.4747H-397.382L-273.948 29.7998H-192.56ZM-295.086 29.7998L-418.521 10.4747H-506.977L-373.224 29.7998H-295.086ZM-396.089 29.7998L-529.842 10.4747H-618.03L-473.696 29.7998L-396.089 29.7998ZM-498.333 29.7998L-642.667 10.4747H-729.945L-574.948 29.7998L-498.333 29.7998ZM-601.375 29.7998L-756.372 10.4747L-841.248 10.4747L-675.6 29.7998L-601.375 29.7998ZM-703.816 29.7998L-869.463 10.4747L-949.317 10.4747L-773.485 29.7998L-703.816 29.7998ZM-803.414 29.7998L-979.246 10.4747L-1062.43 10.4747L-875.706 29.7998L-803.414 29.7998ZM-907.466 29.7998L-1094.19 10.4747L-1179.51 10.4747L-988.926 29.7998H-907.466ZM-1021.34 29.7998L-1211.92 10.4747L-1289.81 10.4747L-1088.78 29.7998H-1021.34ZM2790.37 29.7998L2997.24 10.4747L2919.63 10.4747L2723.54 29.7998H2790.37ZM2690.2 29.7998L2886.29 10.4747L2807.04 10.4747L2621.54 29.7998H2690.2ZM2589.99 29.7998L2775.48 10.4747L2699.31 10.4747L2523.62 29.7998H2589.99ZM2493.72 29.7998L2669.4 10.4747L2585.07 10.4747L2420.25 29.7998L2493.72 29.7998ZM2392.17 29.7998L2557 10.4747L2472.62 10.4747L2318.37 29.7998L2392.17 29.7998ZM2292.07 29.7998L2446.32 10.4747L2363.42 10.4747L2219.22 29.7998L2292.07 29.7998ZM2194.61 29.7998L2338.8 10.4747L2251.41 10.4747L2117.72 29.7998L2194.61 29.7998ZM2094.86 29.7998L2228.56 10.4747L2131.03 10.4747L2009.87 29.7998L2094.86 29.7998ZM1989.11 29.7998L2110.28 10.4747H2027.71L1914.79 29.7998H1989.11ZM1895.41 29.7998L2008.33 10.4747H1915.16L1812.78 29.7998H1895.41ZM1795.15 29.7998L1897.53 10.4747H1806.31L1715.17 29.7998L1795.15 29.7998ZM1699.41 29.7998L1790.55 10.4747H1696.88L1615.72 29.7998L1699.41 29.7998ZM1601.6 29.7998L1682.76 10.4747L1584.27 10.4747L1513.59 29.7998L1601.6 29.7998ZM1501.19 29.7998L1571.87 10.4747L1468.56 10.4747L1407.37 29.7998L1501.19 29.7998ZM1396.57 29.7998L1457.76 10.4747L1355.25 10.4747L1304.76 29.7998L1396.57 29.7998ZM1295.68 29.7998L1346.17 10.4747L1245.54 10.4747L1206.33 29.7998L1295.68 29.7998ZM1199.01 29.7998L1238.22 10.4747L1135.87 10.4747L1107.93 29.7998H1199.01ZM1102.25 29.7998L1130.2 10.4747L1026.2 10.4747L1009.54 29.7998L1102.25 29.7998ZM1005.27 29.7998L1021.94 10.4747L916.554 10.4747L911.163 29.7998L1005.27 29.7998ZM907.778 29.7998L913.168 10.4747L806.864 10.4747L812.752 29.7998L907.778 29.7998ZM809.344 29.7998L803.456 10.4747L698.157 10.4747L715.328 29.7998L809.344 29.7998ZM711.007 29.7998L693.835 10.4747L588.704 10.4747L617.138 29.7998L711.007 29.7998ZM611.393 29.7998L582.959 10.4747L478.636 10.4747L518.508 29.7998H611.393ZM362.89 7.20508L464.465 7.20508L411.26 -18.5822L411.807 -19.3984H293.263L362.89 7.20508ZM284.406 -19.3077L353.795 7.20508L253.23 7.20508L169.47 -19.3984L284.454 -19.3984L284.406 -19.3077ZM158.669 -19.3984L242.429 7.20508L141.036 7.20508L42.998 -19.3984H158.669ZM30.5129 -19.3984L128.551 7.20508L29.8958 7.20508L-82.3389 -19.3984L30.5129 -19.3984ZM-96.5146 -19.3984L15.72 7.20508L-81.762 7.20508L-208.309 -19.3984H-96.5146ZM-224.201 -19.3984L-97.6545 7.20508L-194.131 7.20508L-335.15 -19.3984L-224.201 -19.3984ZM-352.787 -19.3984L-211.768 7.20508L-305.007 7.20508L-460.187 -19.3984H-352.787ZM-479.537 -19.3984L-324.357 7.20508L-418.266 7.20508L-588.19 -19.3984H-479.537ZM-609.328 -19.3984L-439.405 7.20508L-529.607 7.20508L-713.736 -19.3984L-609.328 -19.3984ZM-736.601 -19.3984L-552.472 7.20508H-642.45L-841.144 -19.3984H-736.601ZM-865.781 -19.3984L-667.087 7.20508H-756.168L-969.541 -19.3984L-865.781 -19.3984ZM-995.968 -19.3984L-782.595 7.20508H-869.273L-1097.31 -19.3984H-995.968ZM-1125.52 -19.3984L-897.489 7.20508H-979.066L-1221.12 -19.3984L-1125.52 -19.3984ZM-1251.05 -19.3984L-1008.99 7.20508H-1094.02L-1351.08 -19.3984H-1251.05ZM-1382.58 -19.3714L-1125.79 7.20508H-1211.75L-1474.11 -19.3984L-1382.58 -19.3984L-1382.58 -19.3714ZM-1506.52 -19.3984L-1244.16 7.20508H-1323.82L-1600.56 -19.3984H-1506.52ZM3317.02 -19.3984L3032.24 7.20508L2952.81 7.20508L3222.75 -19.3984L3317.02 -19.3984ZM3189.41 -19.3984L2919.47 7.20508L2838.42 7.20508L3093.78 -19.3984H3189.41ZM3062.23 -19.3984L2806.87 7.20508H2729.03L2970.88 -19.3984L3062.23 -19.3984ZM2940.97 -19.3984L2699.13 7.20508H2612.96L2839.86 -19.3984H2940.97ZM2811.78 -19.3984L2584.88 7.20508H2498.72L2711.06 -19.3984L2811.78 -19.3984ZM2684.76 -19.3984L2472.42 7.20508H2387.82L2586.33 -19.3984H2684.76ZM2561.71 -19.3984L2363.2 7.20508H2274.03L2458.08 -19.3984L2561.71 -19.3984ZM2435.23 -19.3984L2251.18 7.20508H2151.53L2318.33 -19.3984H2435.23ZM2297.57 -19.3984L2130.78 7.20508H2046.81L2202.26 -19.3984H2297.57ZM2182.88 -19.3984L2027.43 7.20508L1932.48 7.20508L2073.42 -19.3984L2182.88 -19.3984ZM2055.8 -19.3984L1914.85 7.20508L1821.73 7.20508L1947.2 -19.3984H2055.8ZM1931.44 -19.3984L1805.97 7.20508L1710.61 7.20508L1822.34 -19.3984L1931.44 -19.3984ZM1808.22 -19.3984L1696.49 7.20508L1596.23 7.20508L1693.53 -19.3984H1808.22ZM1681.13 -19.3984L1583.83 7.20508L1478.91 7.20508L1563.14 -19.3984L1681.13 -19.3984ZM1552.35 -19.3984L1468.11 7.20508L1363.79 7.20508L1433.29 -19.3984H1552.35ZM1424.21 -19.3984L1354.71 7.20508L1252.17 7.20508L1306.15 -19.3984L1424.21 -19.3984ZM1298.82 -19.3984L1244.85 7.20508L1140.6 7.20508L1179.07 -19.3984H1298.82ZM1173.39 -19.3984L1134.92 7.20508L1029.02 7.20508L1051.97 -19.3984L1173.39 -19.3984ZM1047.7 -19.3984L1024.76 7.20508L917.466 7.20508L924.887 -19.3984H1047.7ZM921.502 -19.3984L914.081 7.20508L805.867 7.20508L797.761 -19.3984H921.502ZM794.354 -19.3984L802.46 7.20508L695.252 7.20508L671.614 -19.3984L794.354 -19.3984ZM667.292 -19.3984L690.93 7.20508L583.893 7.20508L544.75 -19.3984H667.292Z"
    fill="url(#paint0_linear_23_1922)" />
  <defs>
    <linearGradient id="paint0_linear_23_1922" x1="860.754" y1="-24.0001" x2="860.755" y2="131.42"
      gradientUnits="userSpaceOnUse">
      <stop stop-color="#2F5478" />
      <stop offset="1" stop-color="#5B8BBA" stop-opacity="0" />
    </linearGradient>
  </defs>
</svg>
  